<svg width="20.000000" height="20.000000" viewBox="0 0 20 20" fill="none" xmlns="http://www.w3.org/2000/svg" xmlns:xlink="http://www.w3.org/1999/xlink">
	<desc>
			Created with Pixso.
	</desc>
	<defs/>
	<path id="facebook" d="M18.89 0L1.1 0C0.49 0 0 0.49 0 1.1L0 18.89C0 19.5 0.49 20 1.1 20L10.68 20L10.68 12.25L8.07 12.25L8.07 9.23L10.68 9.23L10.68 7.01C10.68 4.42 12.26 3.02 14.56 3.02C15.67 3.02 16.61 3.1 16.89 3.14L16.89 5.83L15.29 5.84C14.04 5.84 13.8 6.43 13.8 7.31L13.8 9.23L16.79 9.23L16.4 12.25L13.8 12.25L13.8 20L18.89 20C19.5 20 20 19.5 20 18.89L20 1.1C20 0.49 19.5 0 18.89 0Z" fill="#FFFFFF" fill-opacity="1.000000" fill-rule="nonzero"/>
</svg>
