<svg width="20.000000" height="20.000000" viewBox="0 0 20 20" fill="none" xmlns="http://www.w3.org/2000/svg" xmlns:xlink="http://www.w3.org/1999/xlink">
	<desc>
			Created with Pixso.
	</desc>
	<defs/>
	<path id="instagram" d="M9.33325 0C6.61743 0 6.27747 0.0117188 5.21069 0.0600586C1.5791 0.226685 -0.439209 2.2417 -0.605957 5.87671C-0.655029 6.94421 -0.666748 7.28418 -0.666748 10C-0.666748 12.7158 -0.655029 13.0566 -0.606689 14.1233C-0.440063 17.755 1.57495 19.7733 5.20996 19.9399C6.27747 19.9883 6.61743 20 9.33325 20C12.0491 20 12.3899 19.9883 13.4565 19.9399C17.085 19.7733 19.1083 17.7583 19.2725 14.1233C19.3215 13.0566 19.3333 12.7158 19.3333 10C19.3333 7.28418 19.3215 6.94421 19.2732 5.87744C19.1099 2.24915 17.0924 0.227539 13.4574 0.060791C12.3899 0.0117188 12.0491 0 9.33325 0ZM13.3749 1.86084C12.3199 1.8125 12.0033 1.80249 9.33325 1.80249C6.66321 1.80249 6.34741 1.8125 5.29236 1.85999C2.57996 1.98328 1.31738 3.27002 1.19324 5.95911C1.14575 7.01416 1.13489 7.32996 1.13489 10C1.13489 12.6708 1.1449 12.9867 1.19324 14.0409C1.31653 16.725 2.57581 18.0167 5.29236 18.1409C6.34656 18.1892 6.66321 18.1992 9.33325 18.1992C12.0049 18.1992 12.3199 18.1892 13.3749 18.1409C16.0874 18.0175 17.35 16.7291 17.4741 14.0416C17.5216 12.9875 17.5316 12.6716 17.5316 10.0009C17.5316 7.33081 17.5225 7.01416 17.4741 5.95996C17.3507 3.27002 16.085 1.98413 13.3749 1.86084ZM13.4707 4.66248C13.4707 4 14.0083 3.46252 14.6716 3.46252C15.3341 3.46252 15.8707 4 15.8707 4.66248C15.8707 5.32495 15.3341 5.86255 14.6716 5.86255C14.0083 5.86255 13.4707 5.32495 13.4707 4.66248ZM4.19824 10C4.19824 7.16418 6.49744 4.86499 9.33325 4.86499C12.1691 4.86499 14.4683 7.16418 14.4683 10C14.4683 12.8367 12.1691 15.1359 9.33325 15.1359C6.49744 15.1359 4.19824 12.8358 4.19824 10ZM9.33325 13.3334C7.49243 13.3334 5.99988 11.8417 5.99988 10C5.99988 8.15918 7.49243 6.66663 9.33325 6.66663C11.1741 6.66663 12.6666 8.15918 12.6666 10C12.6666 11.8417 11.1741 13.3334 9.33325 13.3334Z" clip-rule="evenodd" fill="#FFFFFF" fill-opacity="1.000000" fill-rule="evenodd"/>
</svg>
