<svg width="20.000000" height="20.000000" viewBox="0 0 20 20" fill="none" xmlns="http://www.w3.org/2000/svg" xmlns:xlink="http://www.w3.org/1999/xlink">
	<desc>
			Created with Pixso.
	</desc>
	<defs/>
	<path id="pinterest" d="M10 0C4.47 0 0 4.47 0 10C0 14.23 2.63 17.85 6.35 19.31C6.26 18.52 6.18 17.3 6.39 16.44C6.57 15.66 7.56 11.47 7.56 11.47C7.56 11.47 7.26 10.87 7.26 9.98C7.26 8.59 8.06 7.56 9.07 7.56C9.92 7.56 10.33 8.2 10.33 8.96C10.33 9.82 9.79 11.1 9.51 12.29C9.27 13.29 10 14.1 10.99 14.1C12.76 14.1 14.13 12.23 14.13 9.52C14.13 7.13 12.41 5.45 9.95 5.45C7.11 5.45 5.44 7.59 5.44 9.79C5.44 10.65 5.77 11.57 6.18 12.07C6.26 12.17 6.28 12.26 6.25 12.36L5.97 13.49C5.93 13.68 5.83 13.72 5.64 13.63C4.39 13.05 3.61 11.22 3.61 9.75C3.61 6.6 5.9 3.7 10.22 3.7C13.68 3.7 16.38 6.18 16.38 9.48C16.38 12.93 14.21 15.7 11.19 15.7C10.18 15.7 9.23 15.17 8.9 14.55L8.28 16.93C8.05 17.8 7.44 18.89 7.03 19.55C7.97 19.84 8.96 20 10 20C15.52 20 20 15.52 20 10C20 4.47 15.52 0 10 0Z" fill="#FFFFFF" fill-opacity="1.000000" fill-rule="nonzero"/>
</svg>
