<svg width="20.000000" height="17.000000" viewBox="0 0 20 17" fill="none" xmlns="http://www.w3.org/2000/svg" xmlns:xlink="http://www.w3.org/1999/xlink">
	<desc>
			Created with Pixso.
	</desc>
	<defs/>
	<path id="twitter" d="M19.66 1.79C18.93 2.12 18.14 2.34 17.3 2.44C18.15 1.93 18.8 1.13 19.11 0.17C18.32 0.64 17.44 0.98 16.5 1.16C15.76 0.37 14.69 -0.13 13.51 -0.13C10.86 -0.13 8.91 2.34 9.51 4.91C6.1 4.73 3.08 3.1 1.05 0.62C-0.02 2.46 0.5 4.88 2.32 6.1C1.65 6.08 1.02 5.89 0.47 5.58C0.42 7.48 1.78 9.26 3.76 9.66C3.18 9.82 2.55 9.85 1.9 9.73C2.42 11.36 3.94 12.54 5.74 12.58C4.01 13.93 1.84 14.53 -0.34 14.28C1.48 15.44 3.63 16.12 5.95 16.12C13.57 16.12 17.87 9.69 17.61 3.92C18.42 3.34 19.11 2.62 19.66 1.79Z" fill="#FFFFFF" fill-opacity="1.000000" fill-rule="nonzero"/>
</svg>
