<svg width="20.000000" height="20.000000" viewBox="0 0 20 20" fill="none" xmlns="http://www.w3.org/2000/svg" xmlns:xlink="http://www.w3.org/1999/xlink">
	<desc>
			Created with Pixso.
	</desc>
	<defs/>
	<path id="youtube" d="M9.33331 0C3.81079 0 -0.666687 4.47754 -0.666687 10C-0.666687 15.5225 3.81079 20 9.33331 20C14.8558 20 19.3333 15.5225 19.3333 10C19.3333 4.47754 14.8558 0 9.33331 0ZM13.0341 14.0767C11.2825 14.1967 7.3808 14.1967 5.63165 14.0767C3.73499 13.9467 3.51416 13.0183 3.5 10C3.51416 6.97583 3.73749 6.05334 5.63165 5.92334C7.3808 5.80334 11.2833 5.80334 13.0341 5.92334C14.9316 6.05334 15.1517 6.98169 15.1666 10C15.1517 13.0242 14.9291 13.9467 13.0341 14.0767ZM11.7642 9.9967L7.66663 8.04834L7.66663 11.9517L11.7642 9.9967Z" clip-rule="evenodd" fill="#FFFFFF" fill-opacity="1.000000" fill-rule="evenodd"/>
</svg>
